<?xml version="1.0" encoding="UTF-8"?>
<svg version="1.1" xmlns="http://www.w3.org/2000/svg" width="2000" height="2000">
<path d="M0 0 C660 0 1320 0 2000 0 C2000 660 2000 1320 2000 2000 C1340 2000 680 2000 0 2000 C0 1340 0 680 0 0 Z " fill="#fff" transform="translate(0,0)"/>
<path d="M0 0 C2.00992698 3.01489047 2.7687967 5.22488626 3.734375 8.6875 C4.22006958 10.42700928 4.22006958 10.42700928 4.71557617 12.20166016 C5.22761597 14.08183838 5.22761597 14.08183838 5.75 16 C5.92641022 16.64459167 6.10282043 17.28918335 6.28457642 17.95330811 C9.99159647 31.53602371 13.16061845 45.20930141 16 59 C16.22284668 60.05767578 16.44569336 61.11535156 16.67529297 62.20507812 C18.32351511 70.10588727 19.73666232 78.02881494 21 86 C21.19899902 87.23556641 21.39799805 88.47113281 21.60302734 89.74414062 C24.98508424 111.84800142 25.37210998 133.93452644 25.375 156.25 C25.37646719 157.29479397 25.37646719 157.29479397 25.37796402 158.36069489 C25.40920836 181.60231868 24.94186415 204.83655877 20.6875 227.75 C20.46586182 228.97130615 20.24422363 230.1926123 20.01586914 231.45092773 C19.3644557 234.97161271 18.68839114 238.48638046 18 242 C17.82662109 242.90572754 17.65324219 243.81145508 17.47460938 244.74462891 C12.17239751 271.71514283 2.29503008 298.4983933 -10 323 C-10.78271298 324.61320319 -11.56527003 326.22648205 -12.34765625 327.83984375 C-23.48230635 350.30075807 -38.38680216 371.08504417 -55.52734375 389.33984375 C-57.52921897 391.49351994 -59.43187709 393.67980983 -61.3125 395.9375 C-70.58964727 406.58413092 -81.73361953 415.56138528 -93 424 C-93.81839355 424.6197168 -93.81839355 424.6197168 -94.65332031 425.25195312 C-138.78813345 458.50457054 -194.80662726 478.94104121 -250 482 C-250.96147949 482.05494629 -251.92295898 482.10989258 -252.91357422 482.16650391 C-276.05508686 483.42190042 -298.95610991 483.6080492 -322 481 C-322.92006836 480.90348145 -323.84013672 480.80696289 -324.78808594 480.70751953 C-349.31032239 478.13001832 -373.22494499 473.23545648 -397 466.8125 C-398.20346573 466.48848709 -398.20346573 466.48848709 -399.4312439 466.15792847 C-401.72716287 465.53604877 -404.02033354 464.90508989 -406.3125 464.26953125 C-406.98726883 464.08530609 -407.66203766 463.90108093 -408.35725403 463.71127319 C-412.74807009 462.47336029 -416.81999513 460.8126775 -421 459 C-423.00063218 458.35675467 -425.01143886 457.74428369 -427.03125 457.1640625 C-434.3521854 454.96065382 -441.40623897 452.21554243 -448.5 449.375 C-449.74721532 448.87975348 -450.9946107 448.38496019 -452.2421875 447.890625 C-455.49678625 446.59866931 -458.74906177 445.30113334 -462 444 C-462.95197266 443.61924316 -463.90394531 443.23848633 -464.88476562 442.84619141 C-465.93180664 442.42732666 -465.93180664 442.42732666 -467 442 C-467.40281048 424.38582088 -466.56347694 407.42746034 -464 390 C-463.75762206 388.25914109 -463.51542543 386.51825692 -463.2734375 384.77734375 C-463.03882869 383.16371609 -462.80198972 381.55041047 -462.5625 379.9375 C-462.46477295 379.26138672 -462.3670459 378.58527344 -462.26635742 377.88867188 C-461.03863001 370.14780905 -458.95194721 362.58289941 -457 355 C-456.08637695 355.32162109 -455.17275391 355.64324219 -454.23144531 355.97460938 C-434.32263419 362.96606534 -414.42362692 369.645342 -394 375 C-392.96246582 375.27537598 -391.92493164 375.55075195 -390.85595703 375.83447266 C-377.13430022 379.41769769 -363.34427478 381.85964834 -349.3125 383.8125 C-348.55904297 383.91791107 -347.80558594 384.02332214 -347.02929688 384.13192749 C-330.30049092 386.44188031 -313.7631889 387.18664717 -296.88647461 387.18530273 C-293.83498052 387.18748393 -290.78385222 387.20569606 -287.73242188 387.22460938 C-270.59694577 387.2731344 -253.89810165 385.83618373 -237 383 C-235.57833185 382.78120378 -234.15644079 382.56385292 -232.734375 382.34765625 C-222.93887186 380.83073705 -213.52062577 378.80374361 -204 376 C-202.7625 375.64164063 -201.525 375.28328125 -200.25 374.9140625 C-159.79694326 362.9186325 -123.60096341 342.87153396 -92 315 C-91.46858398 314.53174805 -90.93716797 314.06349609 -90.38964844 313.58105469 C-84.83924187 308.66114748 -79.45781186 303.69524037 -74.6875 297.99609375 C-72.79824031 295.76134444 -70.8073561 293.64090806 -68.8125 291.5 C-33.44669324 252.17130148 -12.03137132 200.46493407 -2 149 C-1.80857422 148.03433105 -1.61714844 147.06866211 -1.41992188 146.07373047 C7.98860798 97.56407176 6.30364324 48.75410851 0 0 Z " fill="#DA3192" transform="translate(1434,805)"/>
<path d="M0 0 C24.24208315 4.25299704 45.28634113 18.87007702 62.62792969 35.67919922 C63.77778149 36.78608503 64.95252078 37.86703815 66.1328125 38.94140625 C75.1075538 47.33410366 82.14936157 57.96820364 89.25 67.9375 C99.70925124 82.36255067 112.31139266 92.84412352 128 101 C128.8559375 101.46019531 129.711875 101.92039062 130.59375 102.39453125 C163.16587121 118.62905369 204.75091117 117.29609398 240.33203125 118.19921875 C286.0368917 119.39456097 331.91103911 129.08607446 364.57421875 163.24609375 C386.19443121 187.79077939 395.75838388 217.55802278 395 250 C392.14264138 247.52696447 390.91468044 244.92151209 389.375 241.5 C380.28677682 223.10188967 364.68990235 213.3097286 345.8125 206.8125 C308.33296255 194.49405063 265.04683134 201.20511174 227.03857422 207.50146484 C224.16483603 207.97295555 221.28877939 208.42272233 218.41015625 208.86328125 C201.35986847 211.49160975 184.38639618 214.55817123 167.40600586 217.59973145 C165.55854179 217.93051039 163.7109675 218.26067433 161.86328125 218.59020996 C157.70611843 219.33219883 153.55070878 220.08094023 149.3996582 220.85644531 C140.01216261 222.59403575 130.6995503 223.78331028 121.1875 224.625 C119.88619141 224.74617187 118.58488281 224.86734375 117.24414062 224.9921875 C113.49694516 225.33848783 109.7486519 225.66990746 106 226 C104.95884033 226.09861328 103.91768066 226.19722656 102.8449707 226.29882812 C77.15489838 228.64715204 47.1232404 229.40022029 26 212 C14.50144046 202.09693437 7.24031226 190.12148405 2 176 C1.66097656 175.19820312 1.32195313 174.39640625 0.97265625 173.5703125 C-7.78512047 150.42727202 -2.87623012 122.38749638 3.7890625 99.37890625 C5.45369998 93.54097288 6.81766109 87.62502691 8.20834351 81.71716309 C8.52336053 80.38277978 8.8410134 79.0490155 9.16152954 77.71594238 C13.97699177 57.67739582 17.84035104 32.02142298 8 13 C6.2703442 10.19249554 4.4844145 7.54964288 2.453125 4.953125 C1 3 1 3 0 0 Z " fill="#0B80D6" transform="translate(923,617)"/>
<path d="M0 0 C3.70893284 1.22559087 7.36015523 2.52137289 11 3.9375 C17.54879119 6.31486145 24.15079911 7.76990972 31 9 C32.68029297 9.31130859 32.68029297 9.31130859 34.39453125 9.62890625 C63.70110979 14.16936208 96.53699712 11.24149303 125.57421875 5.55078125 C129.10719379 4.98276588 132.42800581 4.90370747 136 5 C135.43234438 13.16004952 133.31824525 20.68244257 131 28.5 C130.80025574 29.17984955 130.60051147 29.8596991 130.39471436 30.56015015 C114.09494351 85.89715338 87.7290944 138.34404782 58.51171875 187.92578125 C42.63849201 214.87466483 28.66844757 242.18289541 19 272 C18.74798828 272.7621582 18.49597656 273.52431641 18.23632812 274.30957031 C3.97793952 317.76987949 -1.20793316 363.72843552 -1.25 409.3125 C-1.25133942 410.1863031 -1.25267883 411.0601062 -1.25405884 411.96038818 C-1.24790857 430.74585594 0.03918642 449.32558498 2 468 C2.11214844 469.07765625 2.22429687 470.1553125 2.33984375 471.265625 C3.05527215 477.87229716 3.96918887 484.43557099 5 491 C5.09861328 491.62994873 5.19722656 492.25989746 5.29882812 492.90893555 C10.21722782 524.25686269 10.21722782 524.25686269 18.234375 554.921875 C19.00134146 558.00539322 18.88435911 559.08208787 18 562 C8.46844304 547.16297369 -0.42233955 532.15550133 -8.64404297 516.55175781 C-9.78096232 514.41220415 -10.94132271 512.29133239 -12.12890625 510.1796875 C-23.27989591 490.11256205 -31.92467589 468.51115305 -39.87988281 447.01660156 C-40.95288101 444.12689675 -42.04801569 441.24654005 -43.1484375 438.3671875 C-48.27793053 424.80088473 -52.34522338 411.03129247 -56 397 C-56.20077148 396.23413574 -56.40154297 395.46827148 -56.60839844 394.67919922 C-61.73883884 374.83005411 -65.38020923 354.52184394 -66.78222656 334.06689453 C-66.96597035 331.95156456 -66.96597035 331.95156456 -67.50354004 329.72219849 C-68.02117913 326.88387022 -68.1407908 324.26175449 -68.16113281 321.37792969 C-68.17074036 320.27197449 -68.1803479 319.16601929 -68.19024658 318.02655029 C-68.19449646 316.83700745 -68.19874634 315.6474646 -68.203125 314.421875 C-68.20882507 313.18189758 -68.21452515 311.94192017 -68.22039795 310.66436768 C-68.22984304 308.03504283 -68.23637998 305.40570617 -68.24023438 302.77636719 C-68.24672663 298.80647422 -68.28086048 294.83695888 -68.3125 290.8671875 C-68.36809532 277.57241915 -68.1229949 264.96474338 -65 252 C-64.8535907 251.36663727 -64.7071814 250.73327454 -64.55633545 250.08071899 C-63.46366953 245.36142907 -62.2584081 240.6775571 -61 236 C-60.81910828 235.32419891 -60.63821655 234.64839783 -60.45184326 233.95211792 C-57.46384053 222.85258865 -54.15366106 211.89774702 -50.5 201 C-50.24499725 200.2354248 -49.98999451 199.47084961 -49.7272644 198.68310547 C-45.46454372 185.93377736 -40.8118551 173.36411944 -35.9453125 160.8347168 C-31.8209614 150.21065401 -27.86516391 139.53354366 -24 128.8125 C-23.73236847 128.07249756 -23.46473694 127.33249512 -23.18899536 126.57006836 C-15.8963698 106.47365941 -15.8963698 106.47365941 -10 85.9375 C-9.75290283 84.9487085 -9.50580566 83.95991699 -9.2512207 82.94116211 C-6.08157024 69.78077337 -3.95391104 56.38845576 -2 43 C-1.88873779 42.25484131 -1.77747559 41.50968262 -1.6628418 40.74194336 C-0.61188088 32.70010303 -0.64299888 24.53583338 -0.4375 16.4375 C-0.39422355 14.84048545 -0.35060663 13.24348009 -0.30664062 11.64648438 C-0.20049931 7.76441777 -0.09897381 3.88225568 0 0 Z " fill="#0B80D6" transform="translate(948,852)"/>
<path d="M0 0 C2.32089805 2.16481426 3.95448224 4.37111028 5.625 7.0625 C25.25927833 36.92599494 61.1064668 52.98913534 95 60 C114.73137122 63.84746436 134.88552727 64.70351738 154.9296875 65.4765625 C202.7151793 67.32450415 250.96866419 69.91003181 298 79 C300.08721619 79.38163838 302.17445543 79.76315069 304.26171875 80.14453125 C318.91817984 82.91664661 332.90669587 87.15614376 347 92 C348.40330566 92.46962158 348.40330566 92.46962158 349.83496094 92.94873047 C386.76736712 105.33164053 421.93887369 125.10340404 450.5234375 151.7109375 C452.61682183 153.64583216 454.75082207 155.48576906 456.9375 157.3125 C483.92261307 181.01342081 503.65937534 214.94282257 511 250 C511.16226074 250.76489746 511.32452148 251.52979492 511.49169922 252.31787109 C515.61244452 272.51335037 515.68845369 294.0904121 510 314 C509.34 314 508.68 314 508 314 C507.50371094 312.98421875 507.00742188 311.9684375 506.49609375 310.921875 C497.96254692 293.571106 488.38850022 278.09882258 475 264 C474.09507812 263.04222656 473.19015625 262.08445312 472.2578125 261.09765625 C465.06192327 253.61838801 457.32378614 247.18109367 449 241 C448.38092773 240.53126465 447.76185547 240.0625293 447.12402344 239.57958984 C407.57163863 209.748733 356.06920316 189.44979456 308.4140625 176.25 C303.66741695 174.93436592 298.97889112 173.44195877 294.28100586 171.96313477 C278.30868499 166.93625341 262.23912711 162.3009395 246.12858582 157.73991394 C236.06737388 154.88963339 226.03019392 151.95738637 216 149 C215.10764648 148.73735352 214.21529297 148.47470703 213.29589844 148.20410156 C203.68148267 145.36849735 194.13611085 142.41591519 184.64453125 139.19140625 C181.60678691 138.19836014 178.56216606 137.29348614 175.48486328 136.43310547 C118.34270432 120.36582682 46.14406113 93.14426863 14.75292969 38.84277344 C9.21263654 28.92517664 4.26909729 19.21755461 1.8125 8.0625 C1.54663086 6.89364258 1.54663086 6.89364258 1.27539062 5.70117188 C0.8443176 3.80212046 0.42130992 1.90124122 0 0 Z " fill="#D83094" transform="translate(536,377)"/>
<path d="M0 0 C0.33 0 0.66 0 1 0 C2.08753734 4.49418665 2.22192494 8.95687499 2.390625 13.5546875 C2.85705089 23.85527868 4.19472645 33.93975278 5.75 44.125 C5.9502478 45.46146072 5.9502478 45.46146072 6.15454102 46.82492065 C8.32675245 61.30994196 10.73541045 75.71557424 14 90 C14.22655273 90.99161133 14.45310547 91.98322266 14.68652344 93.00488281 C18.07226009 107.58352116 22.24753562 121.81374467 27 136 C27.54116455 137.6411377 27.54116455 137.6411377 28.09326172 139.31542969 C54.11059283 218.06165929 95.35726428 293.0628647 149.4921875 356.05859375 C151.85893001 358.8345394 154.15382031 361.65563193 156.4375 364.5 C160.81516195 369.88365967 165.4959118 374.94459394 170.23046875 380.01171875 C172.35916392 382.29393584 174.41814379 384.61986551 176.4375 387 C180.1436987 391.29809775 184.20461964 395.23296562 188.23974609 399.21826172 C191.14120853 402.09630503 193.93623398 404.98896736 196.5625 408.125 C200.72614077 413.0131959 205.55734 417.18732388 210.3203125 421.47314453 C212.06338956 423.05762184 213.78411277 424.66347968 215.5 426.27734375 C221.56262752 431.97932864 227.67222091 437.50027673 234.17578125 442.703125 C236.81227785 444.84732971 239.37707645 447.05169876 241.9362793 449.28637695 C249.98139672 456.29739452 258.39969649 462.68994306 267 469 C268.65264945 470.21833543 270.30498196 471.43710088 271.95703125 472.65625 C275.1772851 475.03193329 278.40017427 477.4039655 281.625 479.7734375 C282.3483252 480.31186279 283.07165039 480.85028809 283.81689453 481.4050293 C285.30227598 482.49024479 286.80982605 483.54561247 288.33544922 484.57348633 C289.43397217 485.33181763 289.43397217 485.33181763 290.5546875 486.10546875 C291.5444458 486.76518677 291.5444458 486.76518677 292.55419922 487.43823242 C294 489 294 489 294.34814453 491.27075195 C294.09938451 494.24362476 293.59575016 497.07677942 293 500 C290.89936545 511.82804248 290.72151469 523.45366641 290.79418945 535.44311523 C290.81248807 538.56046752 290.81469803 541.67752128 290.81445312 544.79492188 C290.83346065 555.24002437 291.01377597 565.59414489 292 576 C286.34747815 572.92977233 281.2217268 569.39736816 276.0625 565.5625 C275.23564697 564.95067871 274.40879395 564.33885742 273.55688477 563.70849609 C266.08587134 558.14011888 258.8531839 552.3066242 251.671875 546.37207031 C249.45161943 544.54995637 247.19540768 542.77513136 244.9375 541 C226.34209346 526.12988359 209.29685452 509.48386688 192.47924805 492.66455078 C190.04560373 490.23311909 187.60401138 487.80985377 185.16210938 485.38671875 C177.30598392 477.55823568 169.83406423 469.74426804 163 461 C161.37353558 459.12274718 159.6971512 457.31500893 158 455.5 C153.10725336 450.16999711 148.51156649 444.6545976 144 439 C143.38801758 438.23743896 143.38801758 438.23743896 142.76367188 437.45947266 C94.15213473 376.80637535 55.10671753 308.59432465 29.17089844 235.29394531 C28.13630885 232.38346102 27.07879224 229.48317336 26.0078125 226.5859375 C21.52372737 214.33761826 18.08146786 201.87121472 14.83642578 189.24316406 C14.04005894 186.15532487 13.22326712 183.07357293 12.40234375 179.9921875 C8.67688152 165.80432658 5.94262638 151.52832865 3.52294922 137.06445312 C3.08701917 134.50992747 2.6220082 131.96579318 2.12890625 129.421875 C-5.85928948 87.46879429 -5.70819392 42.20926016 0 0 Z " fill="#DE3390" transform="translate(570,611)"/>
<path d="M0 0 C25.71427095 0.04174838 44.94787604 7.87126649 63.22634888 26.11141968 C67.07192476 30.2487289 70.27769975 34.82512633 73.42556763 39.50204468 C73.84459351 40.1049231 74.26361938 40.70780151 74.69534302 41.32894897 C77.48619072 45.61470161 77.48619072 45.61470161 76.96463013 48.31454468 C74.69994218 51.05426473 72.23436538 53.54233743 69.67556763 56.00204468 C65.00692154 60.58365875 60.5829093 65.25007718 56.36306763 70.25204468 C55.57931763 71.14665405 54.79556763 72.04126343 53.98806763 72.96298218 C41.9485946 86.78914521 31.16600261 101.76674328 21.36306763 117.25204468 C20.91286255 117.96312378 20.46265747 118.67420288 19.99880981 119.40682983 C-14.90244183 175.03593244 -36.0521053 238.59310671 -39.63693237 304.25204468 C-44.58218291 299.69069033 -47.14533833 294.1716159 -50.19943237 288.25204468 C-50.50484955 287.66124115 -50.81026672 287.07043762 -51.12493896 286.46173096 C-60.75017573 267.74357335 -68.98193166 248.15441061 -73.18136597 227.4624939 C-73.61030007 225.38126701 -74.09661178 223.32167698 -74.59396362 221.25595093 C-76.90381712 210.81977421 -76.95194739 200.26731801 -77.01193237 189.62704468 C-77.02385117 188.5189595 -77.02385117 188.5189595 -77.03601074 187.38848877 C-77.15606329 172.84840972 -74.9136635 159.18147819 -70.63693237 145.25204468 C-70.4421228 144.57738159 -70.24731323 143.90271851 -70.04660034 143.20761108 C-62.00099014 115.56599664 -47.25382328 90.00154206 -33.26193237 65.00204468 C-22.54722299 45.70596273 -16.04153212 26.98536397 -16.62911987 4.75985718 C-16.63298706 3.02348999 -16.63298706 3.02348999 -16.63693237 1.25204468 C-13.64822956 -1.73665813 -4.06269218 0.00412881 0 0 Z " fill="#0B7ED5" transform="translate(1230.6369323730469,836.7479553222656)"/>
<path d="M0 0 C20.00581429 14.68009301 33.5894583 33.57538242 38.26171875 58.2109375 C38.36484375 59.3246875 38.46796875 60.4384375 38.57421875 61.5859375 C38.63867188 62.235625 38.703125 62.8853125 38.76953125 63.5546875 C39.33678192 73.99209984 35.43862888 84.75575538 28.57421875 92.5859375 C19.8332777 101.47202333 9.4905199 105.68140032 -2.83251953 106.07348633 C-28.54425685 106.19693752 -52.04080465 95.29499584 -70.42578125 77.5859375 C-80.24639504 67.84808169 -87.14687461 57.33682595 -92.42578125 44.5859375 C-92.88984375 43.48572266 -92.88984375 43.48572266 -93.36328125 42.36328125 C-97.53796392 31.94664517 -98.31664665 18.68691459 -94.515625 8.01953125 C-89.37918255 -3.45001587 -81.92766259 -10.95579364 -70.30078125 -15.9140625 C-45.49899291 -23.02326512 -20.2343299 -14.42935222 0 0 Z " fill="#DD3290" transform="translate(1004.42578125,332.4140625)"/>
<path d="M0 0 C50.78538393 -0.77977558 105.91291127 0.35762939 151 27 C152.0003125 27.58265625 153.000625 28.1653125 154.03125 28.765625 C179.52183886 44.31208304 198.10584502 68.0393948 205.54345703 97.08251953 C209.88152115 115.30238885 212.14239145 143.92225796 203 161 C202.82778931 160.1793103 202.82778931 160.1793103 202.65209961 159.34204102 C192.99679599 114.16918185 165.51049429 81.47752099 127.37744141 56.26611328 C121.3329233 52.37324232 115.18683041 48.66124424 109 45 C108.28118652 44.56768066 107.56237305 44.13536133 106.82177734 43.68994141 C74.01280701 24.05432868 36.83969893 10.71577287 0 1 C0 0.67 0 0.34 0 0 Z " fill="#D33097" transform="translate(849,439)"/>
<path d="M0 0 C62.44827586 0 62.44827586 0 75.390625 11.0390625 C83.43339898 19.46908116 85.65182615 27.85585063 85.5390625 39.24145508 C85.15943448 48.32500449 82.50453783 55.6677061 76.3125 62.4375 C63.69951249 73.82225651 48.37215524 74.43919888 32.3125 74.1875 C30.62826723 74.17242022 28.94402133 74.15873767 27.25976562 74.14648438 C23.17258057 74.11632807 19.0872536 74.05756695 15 74 C15 84.56 15 95.12 15 106 C10.05 106 5.1 106 0 106 C0 71.02 0 36.04 0 0 Z " fill="#0367C4" transform="translate(761,1557)"/>
<path d="M0 0 C1.16595703 0.34998047 1.16595703 0.34998047 2.35546875 0.70703125 C12.5347822 4.16326326 19.3349994 10.74517007 24.0625 20.25 C29.45629397 31.67215194 29.36117827 43.0838183 25.2578125 54.9921875 C20.56035512 66.22523776 12.74065431 73.41535237 1.578125 78.06640625 C-1.72229509 79.26155837 -4.4801519 79.82102467 -8 80 C-9.04027344 80.061875 -10.08054687 80.12375 -11.15234375 80.1875 C-24.22554603 80.64172636 -34.5784666 76.88010481 -44.1953125 67.96484375 C-53.52463081 58.20520633 -55.51834532 47.17738082 -55.27734375 34.0859375 C-54.76555961 23.0813054 -49.08460518 14.75018964 -41.375 7.3125 C-30.12073487 -2.1819283 -13.80261854 -4.78527657 0 0 Z " fill="#0568C5" transform="translate(1218,1584)"/>
<path d="M0 0 C4.62 0 9.24 0 14 0 C14.33 13.86 14.66 27.72 15 42 C17.31 40.02 19.62 38.04 22 36 C24.984375 34.57421875 24.984375 34.57421875 27.75 33.6875 C28.67296875 33.38199219 29.5959375 33.07648438 30.546875 32.76171875 C31.35640625 32.51035156 32.1659375 32.25898437 33 32 C33.99 31.67 34.98 31.34 36 31 C46.91718244 30.20379595 56.52105352 31.16840451 65.18359375 38.2734375 C71.53584676 44.31149305 75.46940621 51.08841247 76.26298523 59.93003845 C76.34527466 63.26072938 76.33756732 66.57875206 76.29296875 69.91015625 C76.28872391 71.11820419 76.28447906 72.32625214 76.28010559 73.57090759 C76.26341094 77.40167212 76.22577474 81.23189642 76.1875 85.0625 C76.17244131 87.67121632 76.15875498 90.27994095 76.14648438 92.88867188 C76.11353742 99.25932042 76.06181807 105.62956884 76 112 C71.05 112 66.1 112 61 112 C60.98541748 110.46666016 60.97083496 108.93332031 60.95581055 107.35351562 C60.89766422 101.64299669 60.82043163 95.93286531 60.73754883 90.22265625 C60.70437637 87.75527251 60.67632074 85.28781429 60.65356445 82.8203125 C60.61987787 79.26530334 60.56755298 75.71097202 60.51171875 72.15625 C60.50532883 71.06010376 60.4989389 69.96395752 60.49235535 68.83459473 C60.36828295 62.31276145 60.17636202 55.68239964 55.69023132 50.48156738 C50.05685433 45.39612372 44.19997425 44.52207543 36.87890625 44.69140625 C30.51257596 45.37382157 25.00482222 47.48257745 20.5625 52.1875 C15.23959331 59.50896615 14.54568942 67.3411479 14.48828125 76.16015625 C14.47033005 77.19063583 14.45237885 78.22111542 14.43388367 79.28282166 C14.3801234 82.54267402 14.34599518 85.80238287 14.3125 89.0625 C14.27929667 91.28582712 14.24480426 93.50913538 14.20898438 95.73242188 C14.12441669 101.15484378 14.05744263 106.57722566 14 112 C9.38 112 4.76 112 0 112 C0 75.04 0 38.08 0 0 Z " fill="#0367C4" transform="translate(868,1551)"/>
<path d="M0 0 C5.28 0 10.56 0 16 0 C17.16402344 2.6915625 17.16402344 2.6915625 18.3515625 5.4375 C26.51991305 24.31268491 34.74369011 43.16313276 43 62 C46.33593932 55.49112357 49.40971012 48.9263671 52.25 42.1875 C52.6305957 41.29313232 53.01119141 40.39876465 53.40332031 39.47729492 C54.60519706 36.65278597 55.80311377 33.82662695 57 31 C58.57970845 27.26928076 60.16360997 23.54038223 61.75 19.8125 C62.27835449 18.558927 62.27835449 18.558927 62.81738281 17.2800293 C65.32160761 11.3967439 68.09779868 5.6978533 71 0 C75.62 0 80.24 0 85 0 C79.75955001 12.98282676 74.15690789 25.7844667 68.4375 38.5625 C66.66117609 42.53575233 64.88645438 46.50971555 63.11328125 50.484375 C62.67614807 51.46404739 62.23901489 52.44371979 61.78863525 53.45307922 C59.07908633 59.53870272 56.41491353 65.64178847 53.79296875 71.765625 C53.47474655 72.50590439 53.15652435 73.24618378 52.82865906 74.00889587 C51.37006951 77.40202373 49.92072303 80.79840226 48.48999023 84.20336914 C43.93170933 94.81918534 39.00115291 102.68013969 29.0625 108.8125 C22.08529361 111.53797124 12.41664025 111.15971342 5.375 108.8125 C1.7439902 106.86251325 -0.33101788 105.08601058 -3 102 C-1.02 98.7 0.96 95.4 3 92 C5.2275 93.2375 5.2275 93.2375 7.5 94.5 C13.58409469 97.52486064 17.57821272 98.07350189 24.1875 96 C27.98747987 93.29779209 29.84345045 90.07087795 32 86 C32.39703125 85.40058594 32.7940625 84.80117187 33.203125 84.18359375 C35.29297536 78.45699398 32.159837 72.47132798 29.74609375 67.26953125 C29.41315308 66.53274139 29.0802124 65.79595154 28.73718262 65.03683472 C27.64532101 62.62498525 26.54133828 60.21888827 25.4375 57.8125 C24.67615635 56.13497877 23.91583484 54.45699328 23.15649414 52.77856445 C21.5776581 49.29000528 19.99509223 45.80317453 18.41015625 42.31738281 C14.90204967 34.59053682 11.44955993 26.8389709 8.00344849 19.08432007 C6.94717585 16.70925647 5.88773653 14.33562468 4.82788086 11.9621582 C4.18590281 10.52040398 3.54404999 9.07859398 2.90234375 7.63671875 C2.60630249 6.97501678 2.31026123 6.31331482 2.00524902 5.63156128 C0 1.11413446 0 1.11413446 0 0 Z " fill="#0467C5" transform="translate(955,1583)"/>
<path d="M0 0 C0.49886719 0.25394531 0.99773437 0.50789063 1.51171875 0.76953125 C0.20110284 5.00382881 -1.43184384 8.84360529 -3.48828125 12.76953125 C-4.10703125 12.50140625 -4.72578125 12.23328125 -5.36328125 11.95703125 C-6.39453125 11.56515625 -7.42578125 11.17328125 -8.48828125 10.76953125 C-9.12378906 10.50527344 -9.75929688 10.24101563 -10.4140625 9.96875 C-16.1850679 7.86567204 -21.65492093 7.44992965 -27.73828125 7.39453125 C-28.5068042 7.38083496 -29.27532715 7.36713867 -30.06713867 7.35302734 C-35.80955322 7.39915116 -40.04219124 8.56015963 -44.42578125 12.51953125 C-46.05471082 15.96902916 -45.52042748 18.15701946 -44.48828125 21.76953125 C-39.12845259 28.42311166 -27.67024083 28.73595639 -19.80078125 30.20703125 C-10.75928917 31.9838649 -2.22135812 34.49173291 3.32421875 42.33203125 C5.46450167 48.52758708 5.65053689 55.01570906 2.94921875 61.08203125 C-1.81066673 69.16392013 -8.76297779 72.1639659 -17.48828125 74.76953125 C-18.11734375 74.96417969 -18.74640625 75.15882812 -19.39453125 75.359375 C-32.68031213 77.96199999 -47.80920285 75.10907045 -59.73046875 69.1484375 C-61.48828125 67.76953125 -61.48828125 67.76953125 -62.3984375 65.90625 C-62.52086616 62.99457709 -61.54428324 61.49655895 -60.05078125 59.01953125 C-59.57769531 58.2203125 -59.10460938 57.42109375 -58.6171875 56.59765625 C-58.24464844 55.994375 -57.87210938 55.39109375 -57.48828125 54.76953125 C-56.78703125 55.10726563 -56.08578125 55.445 -55.36328125 55.79296875 C-53.94015625 56.46199219 -53.94015625 56.46199219 -52.48828125 57.14453125 C-51.09609375 57.80582031 -51.09609375 57.80582031 -49.67578125 58.48046875 C-42.65506364 61.31972955 -36.35844947 62.11177398 -28.86328125 62.08203125 C-28.0434375 62.09814453 -27.22359375 62.11425781 -26.37890625 62.13085938 C-21.32313827 62.1349235 -17.87682602 61.54444187 -13.48828125 58.76953125 C-10.8949222 56.1761722 -11.21101562 54.28206093 -11.125 50.7421875 C-11.59901764 48.16822073 -12.43487342 47.35836717 -14.48828125 45.76953125 C-19.14035669 43.65309254 -24.31640735 42.78091277 -29.3125 41.83203125 C-30.18205322 41.66630615 -31.05160645 41.50058105 -31.94750977 41.32983398 C-33.68924269 41.00458502 -35.43321915 40.69107151 -37.17944336 40.39086914 C-46.71158444 38.63536417 -53.58630589 35.28611711 -59.30078125 27.20703125 C-61.29552338 21.43277773 -61.74245489 15.2533469 -59.64453125 9.42578125 C-55.35884753 1.89687741 -48.62151045 -2.30660536 -40.46875 -4.6875 C-39.81519531 -4.86667969 -39.16164063 -5.04585937 -38.48828125 -5.23046875 C-26.31057824 -9.28970309 -11.1302379 -5.3353205 0 0 Z " fill="#0668C5" transform="translate(1105.48828125,1588.23046875)"/>
<path d="M0 0 C6.1346672 4.77140782 9.46756245 11.14976128 10.5234375 18.78515625 C11.08227487 27.9172423 9.56267338 35.47333834 4 43 C-1.944949 48.9333604 -7.92678922 51.28934412 -16.3125 51.375 C-22.42829016 51.36018103 -26.98314199 50.59061907 -32 47 C-32.886875 46.443125 -33.77375 45.88625 -34.6875 45.3125 C-40.93731887 39.06268113 -43.20944341 31.96304935 -43.3125 23.375 C-43.34150391 22.59253906 -43.37050781 21.81007813 -43.40039062 21.00390625 C-43.47741631 13.85829297 -41.03789175 9.24553131 -37.3125 3.3125 C-26.96102087 -7.03897913 -11.99261671 -7.96557568 0 0 Z " fill="#FCFDFE" transform="translate(1221,1600)"/>
<path d="M0 0 C5.0325 -0.0825 10.065 -0.165 15.25 -0.25 C17.59206543 -0.30462402 17.59206543 -0.30462402 19.98144531 -0.36035156 C30.7532519 -0.44512587 41.46419151 0.74456279 50 8 C55.42817034 15.18865801 55.55088657 21.22739129 55 30 C53.99864577 35.69577638 51.50236176 39.21531965 46.96875 42.75 C43.76940883 44.78132773 40.62128977 45.87205729 37 47 C36.41831055 47.18747803 35.83662109 47.37495605 35.23730469 47.56811523 C31.96369691 48.20004585 28.71065736 48.12219898 25.390625 48.09765625 C24.74593262 48.09664917 24.10124023 48.09564209 23.43701172 48.09460449 C21.04132291 48.08939402 18.64565957 48.07543281 16.25 48.0625 C10.8875 48.041875 5.525 48.02125 0 48 C0 32.16 0 16.32 0 0 Z " fill="#FAFCFE" transform="translate(776,1570)"/>
<path d="M0 0 C4.95 0 9.9 0 15 0 C15 26.4 15 52.8 15 80 C10.05 80 5.1 80 0 80 C0 53.6 0 27.2 0 0 Z " fill="#086AC5" transform="translate(1128,1583)"/>
<path d="M0 0 C3.4203866 1.17013226 3.91540482 1.87310723 6 5 C6.77810526 11.89178947 6.77810526 11.89178947 3.9375 15.9375 C0.38459775 18.43209094 -1.65904305 19.07615714 -6 19 C-11.46835443 16.06329114 -11.46835443 16.06329114 -13 13 C-13.68571429 6.02857143 -13.68571429 6.02857143 -11 2 C-6.88157597 -0.74561602 -4.89307732 -0.54367526 0 0 Z " fill="#0669C5" transform="translate(1139,1549)"/>
<path d="M0 0 C0.33 0 0.66 0 1 0 C1.90413673 3.83724172 2.10576898 7.37502274 2.0625 11.3125 C2.05347656 12.38113281 2.04445313 13.44976563 2.03515625 14.55078125 C2.02355469 15.35902344 2.01195312 16.16726563 2 17 C1.01 16.34 0.02 15.68 -1 15 C-0.67 10.05 -0.34 5.1 0 0 Z " fill="#FE709F" transform="translate(570,611)"/>
</svg>
